<?xml version="1.0" encoding="UTF-8" standalone="no"?><!DOCTYPE svg PUBLIC "-//W3C//DTD SVG 1.1//EN" "http://www.w3.org/Graphics/SVG/1.1/DTD/svg11.dtd"><svg width="100%" height="100%" viewBox="0 0 2805 4500" version="1.1" xmlns="http://www.w3.org/2000/svg" xmlns:xlink="http://www.w3.org/1999/xlink" xml:space="preserve" xmlns:serif="http://www.serif.com/" style="fill-rule:evenodd;clip-rule:evenodd;stroke-linejoin:round;stroke-miterlimit:2;"><rect id="Artboard1" x="0" y="0" width="2804.36" height="4500" style="fill:none;"/><path d="M315.543,1064.65l2131.73,-0c-3.529,67.054 -7.08,134.102 -10.846,201.143c-0.464,8.28 -0.927,16.559 -1.391,24.839c-13.44,239.657 -27.468,479.269 -42.445,718.835c-0.372,5.962 -0.745,11.924 -1.129,18.067c-3.786,60.555 -7.577,121.11 -11.386,181.664c-15.925,253.196 -31.07,506.429 -45.359,759.723c-10.809,191.542 -21.627,383.08 -34.109,574.521c-0.446,6.84 -0.892,13.68 -1.352,20.727c-2.055,31.382 -4.144,62.762 -6.283,94.139c-1.87,27.457 -3.621,54.919 -5.333,82.386c-0.971,15.115 -1.943,30.23 -2.915,45.345c-0.418,6.961 -0.835,13.922 -1.265,21.094c-5.629,85.872 -21.916,165.042 -80.145,231.487c-2.906,3.512 -5.811,7.023 -8.804,10.641c-35.473,39.52 -83.938,63.979 -136.41,70.678c-18.495,0.814 -36.967,0.809 -55.478,0.777c-8.321,0.02 -8.321,0.02 -16.811,0.04c-18.566,0.037 -37.133,0.032 -55.7,0.027c-13.321,0.018 -26.641,0.037 -39.962,0.059c-36.171,0.052 -72.342,0.065 -108.514,0.069c-30.197,0.006 -60.395,0.027 -90.593,0.047c-67.175,0.045 -134.349,0.062 -201.524,0.059c-4.028,-0.001 -8.056,-0.001 -12.206,-0.001c-4.033,-0 -8.066,-0.001 -12.221,-0.001c-65.36,-0.002 -130.72,0.053 -196.081,0.135c-67.161,0.084 -134.322,0.123 -201.483,0.119c-37.687,-0.002 -75.372,0.015 -113.058,0.076c-35.443,0.057 -70.885,0.057 -106.327,0.015c-13,-0.006 -26,0.007 -39,0.042c-17.763,0.045 -35.523,0.018 -53.285,-0.026c-7.694,0.044 -7.694,0.044 -15.544,0.09c-66.023,-0.367 -124.522,-20.094 -173.191,-65.783c-55.305,-58.927 -83.07,-128.332 -89.05,-208.103c-0.441,-5.324 -0.882,-10.648 -1.336,-16.133c-7.787,-98.428 -13.122,-197.067 -18.973,-295.623c-1.902,-31.962 -3.827,-63.922 -5.749,-95.882c-3.75,-62.433 -7.479,-124.867 -11.2,-187.302c-3.025,-50.755 -6.058,-101.51 -9.096,-152.264c-0.434,-7.245 -0.867,-14.491 -1.314,-21.957c-0.881,-14.722 -1.763,-29.445 -2.644,-44.168c-5.906,-98.685 -11.805,-197.371 -17.689,-296.057c-0.344,-5.774 -0.344,-5.774 -0.695,-11.664c-1.863,-31.248 -3.725,-62.496 -5.588,-93.744c-7.272,-121.996 -14.567,-243.991 -21.881,-365.985c-8.235,-137.346 -16.453,-274.694 -24.647,-412.043c-0.875,-14.652 -1.749,-29.304 -2.623,-43.956c-0.43,-7.208 -0.86,-14.416 -1.303,-21.842c-3.026,-50.692 -6.063,-101.384 -9.105,-152.075c-3.707,-61.773 -7.396,-123.547 -11.064,-185.323c-1.87,-31.492 -3.748,-62.983 -5.647,-94.473c-1.74,-28.86 -3.458,-57.722 -5.158,-86.585c-0.616,-10.404 -1.241,-20.807 -1.875,-31.209c-0.865,-14.223 -1.7,-28.448 -2.529,-42.674c-0.248,-3.962 -0.496,-7.924 -0.752,-12.006c-2.275,-40.138 -1.664,-79.519 -1.664,-119.965Z" style="fill:#f1a400;fill-rule:nonzero;"/><path d="M1599.23,141.098c4.77,4.545 9.539,9.089 14.453,13.772c14.18,11.634 14.18,11.634 31.561,5.877c5.901,-2.651 11.801,-5.301 17.88,-8.032c104.711,-37.165 195.687,-30.551 296.757,13.659c83.632,41.992 145.013,115.049 179.543,201.256c3.748,16.055 5.172,29.925 5.808,46.469l23.234,-0c72.124,7.376 137.147,53.653 185.874,104.553c5.503,5.234 5.503,5.234 11.117,10.574c43.497,44.263 73.848,109.396 76.169,171.465c-0.052,3.182 -0.104,6.364 -0.158,9.643c6.948,1.078 13.897,2.156 21.056,3.267c77.939,17.389 140.725,61.24 184.715,126.881c52.299,86.169 40.502,179.243 30.631,275.769c-1.646,16.933 -3.25,33.87 -4.847,50.808c-0.626,6.604 -0.626,6.604 -1.264,13.341c-4.885,52.112 -8.819,104.292 -12.721,156.484c-0.378,5.031 -0.755,10.061 -1.145,15.244c-1.983,26.42 -3.956,52.84 -5.923,79.261c-4.379,58.807 -8.825,117.608 -13.284,176.409c-0.463,6.094 -0.925,12.188 -1.401,18.467c-9.999,131.694 -20.628,263.334 -31.363,394.969c-16.854,206.654 -33.194,413.34 -49.01,620.075c-0.984,12.866 -1.969,25.733 -2.953,38.599c-0.978,12.771 -1.955,25.543 -2.932,38.315c-1.918,25.065 -3.836,50.131 -5.755,75.197c-0.467,6.111 -0.935,12.221 -1.416,18.517c-8.912,116.425 -18.014,232.835 -27.24,349.236c-0.343,4.323 -0.686,8.647 -1.039,13.101c-2.769,34.926 -5.539,69.851 -8.311,104.777c-5.679,71.554 -11.31,143.113 -16.92,214.673c-1.367,17.438 -2.734,34.875 -4.102,52.313c-5.334,67.986 -5.334,67.986 -10.657,135.974c-4.37,55.865 -8.763,111.728 -13.216,167.586c-2.362,29.657 -4.685,59.317 -6.983,88.978c-1.506,19.335 -3.046,38.667 -4.594,57.999c-0.716,9.016 -1.418,18.035 -2.105,27.054c-8.486,111.085 -33.884,189.73 -119.603,264.492c-72.843,56.214 -156.239,59.14 -244.574,59.55c-7.827,0.056 -15.654,0.114 -23.481,0.174c-21.314,0.157 -42.629,0.279 -63.944,0.395c-22.854,0.13 -45.708,0.289 -68.562,0.444c-49.422,0.329 -98.844,0.614 -148.267,0.889c-30.679,0.171 -61.359,0.352 -92.038,0.534c-261.732,1.542 -523.468,2.866 -785.204,3.204c-29.719,0.038 -59.438,0.101 -89.157,0.186c-34.625,0.095 -69.249,0.132 -103.874,0.122c-12.497,0.004 -24.994,0.028 -37.491,0.073c-104.126,0.35 -197.231,-2.968 -278.24,-78.55c-43.854,-48.603 -71.618,-98.492 -78.693,-163.619c-0.484,-4.295 -0.968,-8.59 -1.467,-13.015c-6.121,-56.129 -10.222,-112.427 -14.433,-168.724c-0.927,-12.181 -1.856,-24.363 -2.786,-36.544c-1.97,-25.832 -3.929,-51.666 -5.877,-77.5c-3.092,-40.977 -6.214,-81.952 -9.343,-122.926c-0.523,-6.858 -1.047,-13.715 -1.586,-20.78c-1.057,-13.842 -2.114,-27.683 -3.171,-41.525c-1.583,-20.741 -3.164,-41.483 -4.744,-62.225c-8.166,-107.155 -16.467,-214.299 -24.944,-321.429c-1.015,-12.826 -2.028,-25.651 -3.042,-38.477c-9.182,-116.153 -18.517,-232.293 -27.891,-348.431c-3.863,-47.863 -7.724,-95.725 -11.584,-143.588c-1.126,-13.969 -2.253,-27.938 -3.38,-41.907c-16.702,-207.052 -32.96,-414.134 -48.771,-621.256c-15.634,-204.789 -31.714,-409.537 -48.284,-614.253c-0.994,-12.294 -1.988,-24.589 -2.982,-36.884c-2.795,-34.545 -5.598,-69.089 -8.408,-103.632c-0.436,-5.355 -0.871,-10.71 -1.32,-16.227c-5.326,-65.4 -10.705,-130.795 -16.747,-196.134c-9.466,-104.65 -2.006,-184.279 65.034,-269.362c41.724,-46.311 101.497,-83.727 164.091,-88.943c0.36,-7.069 0.719,-14.137 1.09,-21.419c9.448,-82.446 56.619,-164.698 120.89,-216.731c53.231,-37.194 108.617,-69.803 174.256,-75.511c0.786,-3.804 1.572,-7.608 2.382,-11.527c21.759,-92.247 81.374,-169.071 160.257,-220.815c73.047,-44.12 165.496,-68.847 250.572,-49.443c20.439,5.62 40.439,12.203 60.411,19.289c24.115,8.829 24.115,8.829 49.146,12.729c13.742,-8.256 13.742,-8.256 26.501,-20.693c134.293,-113.969 312.398,-100.02 449.799,-2.541Zm-1283.69,923.557c-0.174,66.119 -0.174,66.119 2.416,131.971c0.262,4.489 0.523,8.977 0.792,13.601c0.867,14.781 1.767,29.56 2.667,44.339c0.641,10.808 1.279,21.617 1.916,32.426c1.744,29.505 3.518,59.008 5.297,88.511c1.918,31.898 3.809,63.798 5.703,95.697c3.71,62.426 7.447,124.851 11.193,187.275c3.047,50.777 6.083,101.554 9.113,152.332c0.432,7.239 0.864,14.477 1.309,21.935c0.877,14.708 1.755,29.416 2.632,44.124c7.99,133.905 16.006,267.809 24.034,401.713c7.314,121.986 14.605,243.974 21.876,365.963c1.861,31.219 3.722,62.438 5.583,93.657c0.344,5.766 0.344,5.766 0.695,11.65c6.092,102.178 12.202,204.355 18.318,306.533c0.878,14.666 1.756,29.333 2.634,43.999c0.432,7.215 0.864,14.431 1.309,21.864c3.03,50.646 6.052,101.292 9.07,151.938c3.685,61.826 7.385,123.651 11.102,185.476c1.894,31.495 3.781,62.992 5.651,94.489c8.462,147.417 8.462,147.417 19.698,294.64c0.412,4.802 0.824,9.605 1.248,14.553c7.64,80.201 42.516,150.01 101.144,205.552c54.136,41.953 107.049,51.944 173.442,51.828c5.547,0.013 11.094,0.026 16.81,0.04c18.567,0.037 37.133,0.032 55.7,0.027c13.321,0.018 26.641,0.037 39.962,0.059c36.171,0.052 72.343,0.065 108.514,0.069c30.198,0.006 60.395,0.027 90.593,0.047c67.175,0.045 134.349,0.062 201.524,0.059c4.028,-0.001 8.056,-0.001 12.206,-0.001c4.033,-0 8.066,-0.001 12.221,-0.001c65.361,-0.002 130.721,0.053 196.081,0.135c67.161,0.084 134.322,0.123 201.484,0.119c37.686,-0.002 75.372,0.015 113.058,0.076c35.442,0.057 70.884,0.057 106.326,0.015c13,-0.006 26.001,0.007 39.001,0.042c17.762,0.045 35.522,0.018 53.284,-0.026c7.695,0.044 7.695,0.044 15.544,0.09c68.013,-0.378 125.807,-21.489 176.096,-67.962c50.115,-52.64 79.101,-122.45 86.061,-194.381c0.473,-4.703 0.946,-9.407 1.433,-14.252c6.988,-73.438 10.682,-147.156 14.877,-220.794c1.245,-21.741 2.52,-43.479 3.793,-65.217c1.796,-30.703 3.584,-61.406 5.36,-92.11c3.656,-63.177 7.43,-126.348 11.246,-189.516c1.741,-28.826 3.47,-57.652 5.199,-86.479c0.354,-5.903 0.709,-11.807 1.074,-17.889c5.046,-84.129 10.061,-168.259 15.081,-252.389c7.099,-118.981 14.212,-237.961 21.359,-356.939c6.207,-103.334 12.38,-206.669 18.546,-310.006c7.835,-131.309 15.672,-262.618 23.57,-393.924c3.127,-51.985 6.246,-103.97 9.319,-155.957c1.747,-29.548 3.501,-59.095 5.258,-88.643c0.345,-5.803 0.69,-11.607 1.045,-17.586c4.545,-76.312 9.325,-152.606 14.293,-228.891c0.268,-4.111 0.535,-8.222 0.811,-12.458c2.65,-40.75 5.311,-81.499 8.014,-122.245c1.235,-18.659 2.454,-37.32 3.677,-55.98c0.453,-6.745 0.906,-13.49 1.373,-20.44c0.614,-9.421 0.614,-9.421 1.241,-19.033c0.36,-5.431 0.72,-10.862 1.091,-16.458c0.879,-19.071 0.765,-38.177 0.765,-57.267l-2131.73,-0Z" style="fill:#d7effd;fill-rule:nonzero;"/><path d="M315.543,1064.65l2131.73,-0c-3.529,67.054 -7.08,134.102 -10.846,201.143c-0.464,8.28 -0.927,16.559 -1.391,24.839c-13.44,239.657 -27.468,479.269 -42.445,718.835c-0.372,5.962 -0.745,11.924 -1.129,18.067c-3.786,60.555 -7.577,121.11 -11.386,181.664c-15.925,253.196 -31.07,506.429 -45.359,759.723c-10.809,191.542 -21.627,383.08 -34.109,574.521c-0.446,6.84 -0.892,13.68 -1.352,20.727c-2.055,31.382 -4.144,62.762 -6.283,94.139c-1.87,27.457 -3.621,54.919 -5.333,82.386c-0.971,15.115 -1.943,30.23 -2.915,45.345c-0.418,6.961 -0.835,13.922 -1.265,21.094c-5.629,85.872 -21.916,165.042 -80.145,231.487c-2.906,3.512 -5.811,7.023 -8.804,10.641c-35.465,39.511 -83.942,63.999 -136.41,70.678c-18.6,0.794 -37.176,0.76 -55.791,0.699c-8.37,0.007 -8.37,0.007 -16.91,0.015c-18.675,0.01 -37.35,-0.022 -56.025,-0.054c-13.396,-0.002 -26.792,-0.001 -40.189,0.002c-36.36,0.002 -72.72,-0.032 -109.08,-0.073c-38.001,-0.036 -76.003,-0.039 -114.004,-0.046c-63.78,-0.015 -127.561,-0.052 -191.342,-0.104c-65.686,-0.054 -131.372,-0.095 -197.059,-0.119c-6.076,-0.003 -6.076,-0.003 -12.275,-0.005c-20.322,-0.008 -40.644,-0.015 -60.966,-0.022c-168.519,-0.06 -337.037,-0.163 -505.556,-0.293l-0,-5.808l679.599,-0l-0,-3043.67l-1062.96,0l-0,-5.808Z" style="fill:#f7d518;fill-rule:nonzero;"/><path d="M1697.97,716.143c-18.736,10.013 -36.708,14.897 -57.371,19.833c-87.823,24.218 -160.72,84.031 -206.917,161.388c-32.559,60.794 -38.695,93.101 -55.181,167.291l-1062.96,-0c7.427,122.077 14.855,244.154 22.508,369.931c5.256,86.492 10.511,172.984 15.746,259.478c0.527,8.706 0.527,8.706 1.065,17.587c13.834,228.58 27.477,457.171 41.084,685.764c3.529,59.286 7.06,118.572 10.593,177.857c2.37,39.772 4.74,79.544 7.11,119.316c0.892,14.963 1.783,29.926 2.675,44.89c6.842,114.829 13.673,229.658 20.484,344.489c4.836,81.55 9.687,163.098 14.551,244.646c2.937,49.253 5.862,98.507 8.771,147.761c1.974,33.402 3.963,66.802 5.963,100.202c1.142,19.082 2.276,38.164 3.396,57.247c4.098,69.75 8.45,139.452 14.513,209.062c0.433,5.158 0.867,10.315 1.313,15.629c7.232,78.887 38.37,150.889 96.921,205.864c58.855,44.196 114.599,50.585 185.677,50.951c10.376,0.086 10.376,0.086 20.961,0.174c18.887,0.151 37.774,0.279 56.661,0.395c19.768,0.127 39.536,0.286 59.304,0.442c37.398,0.289 74.795,0.55 112.193,0.801c42.592,0.288 85.183,0.606 127.774,0.928c87.58,0.66 175.161,1.281 262.741,1.875c2.289,4.339 4.577,8.678 6.935,13.148c3.057,5.717 6.115,11.434 9.266,17.325c3.007,5.656 6.014,11.312 9.112,17.14c12.578,21.469 27.849,38.431 44.39,56.941l-0,11.617c3.354,1.528 6.709,3.055 10.165,4.629c13.757,7.356 24.375,15.836 36.303,25.866c48.798,38.398 102.366,60.533 162.639,74.059l-0,5.808c-254.34,4.808 -508.681,6.584 -763.063,6.851c-27.404,0.031 -54.807,0.092 -82.211,0.166c-37.436,0.097 -74.873,0.133 -112.309,0.123c-13.93,0.005 -27.86,0.029 -41.789,0.074c-19.264,0.057 -38.527,0.04 -57.791,0.006c-8.339,0.049 -8.339,0.049 -16.847,0.099c-82.111,-0.379 -156.624,-21.303 -218.094,-78.655c-43.854,-48.603 -71.618,-98.492 -78.693,-163.619c-0.484,-4.295 -0.968,-8.59 -1.467,-13.015c-6.121,-56.129 -10.222,-112.427 -14.433,-168.724c-0.927,-12.181 -1.856,-24.363 -2.786,-36.544c-1.97,-25.832 -3.929,-51.666 -5.877,-77.5c-3.092,-40.977 -6.214,-81.952 -9.343,-122.926c-0.785,-10.286 -0.785,-10.286 -1.586,-20.78c-1.057,-13.842 -2.114,-27.683 -3.171,-41.525c-1.583,-20.741 -3.164,-41.483 -4.744,-62.225c-8.166,-107.155 -16.467,-214.299 -24.944,-321.429c-1.015,-12.826 -2.028,-25.651 -3.042,-38.477c-9.182,-116.153 -18.517,-232.293 -27.891,-348.431c-3.863,-47.863 -7.724,-95.725 -11.584,-143.588c-1.126,-13.969 -2.253,-27.938 -3.38,-41.907c-16.702,-207.052 -32.96,-414.134 -48.771,-621.256c-15.634,-204.789 -31.714,-409.537 -48.284,-614.253c-0.994,-12.294 -1.988,-24.589 -2.982,-36.884c-2.795,-34.545 -5.598,-69.089 -8.408,-103.632c-0.436,-5.355 -0.871,-10.71 -1.32,-16.227c-5.326,-65.4 -10.705,-130.795 -16.747,-196.134c-9.466,-104.65 -2.006,-184.279 65.034,-269.362c22.16,-24.596 49.076,-42.384 76.963,-59.901c3.834,-2.411 7.668,-4.822 11.618,-7.306c67.865,-38.174 154.792,-29.53 230.027,-29.95c12.689,-0.11 25.378,-0.224 38.067,-0.342c34.397,-0.303 68.794,-0.532 103.192,-0.744c21.54,-0.139 43.08,-0.3 64.62,-0.468c344.546,-2.684 689.099,-2.448 1033.65,-1.849Z" style="fill:#b6e6fb;fill-rule:nonzero;"/><path d="M1599.23,141.098c7.154,6.817 7.154,6.817 14.453,13.772c14.18,11.634 14.18,11.634 31.561,5.877c8.851,-3.976 8.851,-3.976 17.88,-8.032c104.711,-37.165 195.687,-30.551 296.757,13.659c83.632,41.992 145.013,115.049 179.543,201.256c3.748,16.055 5.172,29.925 5.808,46.469l23.234,-0c72.124,7.376 137.147,53.653 185.874,104.553c5.503,5.234 5.503,5.234 11.117,10.574c22.876,23.279 37.861,49.522 52.05,78.733c1.735,3.486 3.47,6.972 5.257,10.564c9.82,21.461 14.251,40.651 16.301,64.212c0.467,5.183 0.934,10.365 1.414,15.705c0.326,3.925 0.653,7.85 0.989,11.894c-11.128,0.071 -11.128,0.071 -22.48,0.142c-102.627,0.653 -205.254,1.337 -307.881,2.036c-6.504,0.045 -6.504,0.045 -13.14,0.09c-396.414,2.7 -792.82,6.17 -1189.23,9.712c-7.492,0.067 -14.984,0.134 -22.703,0.203c-194.037,1.734 -388.074,3.481 -582.111,5.243c0.833,-8.312 1.692,-16.62 2.562,-24.928c0.475,-4.627 0.95,-9.254 1.44,-14.021c10.205,-75.274 59.612,-151.948 117.978,-199.201c53.231,-37.194 108.617,-69.803 174.256,-75.511c1.179,-5.706 1.179,-5.706 2.382,-11.527c21.759,-92.247 81.374,-169.071 160.257,-220.815c73.047,-44.12 165.496,-68.847 250.572,-49.443c20.439,5.62 40.439,12.203 60.411,19.289c24.115,8.829 24.115,8.829 49.146,12.729c13.742,-8.256 13.742,-8.256 26.501,-20.693c134.293,-113.969 312.398,-100.02 449.799,-2.541Z" style="fill:#f0f1f0;fill-rule:nonzero;"/><path d="M1401.74,71.395c74.66,-7.999 146.493,30.045 203.298,75.511c3.624,3.512 7.248,7.023 10.982,10.642c12.471,8.702 12.471,8.702 28.861,2.836c6.02,-2.531 12.04,-5.062 18.243,-7.669c104.711,-37.165 195.687,-30.551 296.757,13.659c83.632,41.992 145.013,115.049 179.543,201.256c3.748,16.055 5.172,29.925 5.808,46.469l23.234,-0c72.124,7.376 137.147,53.653 185.874,104.553c3.668,3.49 7.337,6.979 11.117,10.574c22.876,23.279 37.861,49.522 52.05,78.733c1.735,3.486 3.47,6.972 5.257,10.564c14.876,32.51 14.823,53.003 18.704,91.811l-1062.96,0c-0.48,-90.33 -0.959,-180.66 -1.453,-273.727c-0.317,-42.557 -0.317,-42.557 -0.641,-85.974c-0.104,-35.028 -0.104,-35.028 -0.124,-51.501c-0.035,-11.342 -0.116,-22.685 -0.235,-34.027c-0.683,-68.565 1.209,-129.019 25.687,-193.71Z" style="fill:#fefefe;fill-rule:nonzero;"/><path d="M1558.57,2501.54c23.697,4.937 32.451,13.133 46.468,32.673c0.435,21.285 -3.328,31.361 -15.61,48.647c-17.682,12.425 -27.088,12.971 -48.283,9.439c-16.995,-11.943 -22.346,-20.778 -29.406,-40.297c0.363,-17.789 0.363,-17.789 12.343,-34.488c17.063,-12.343 17.063,-12.343 34.488,-15.974Z" style="fill:#fce890;fill-rule:nonzero;"/><path d="M2099.69,3320.66c10.687,3.517 10.687,3.517 22.304,13.319c7.655,17.703 8.595,29.175 5.809,48.283c-9.076,13.796 -9.076,13.796 -23.234,23.235c-22.887,3.269 -35.188,3.508 -54.819,-9.076c-12.583,-19.631 -12.345,-31.932 -9.075,-54.818c15.463,-25.773 31.608,-26.098 59.015,-20.943Z" style="fill:#fce890;fill-rule:nonzero;"/><path d="M2017.44,1506.1c16.949,13.241 17.299,22.222 19.967,43.564c-2.541,20.33 -2.541,20.33 -11.98,34.489c-18.191,11.968 -27.244,13.006 -48.646,9.075c-19.537,-14.44 -27.885,-22.736 -32.31,-46.831c3.267,-17.062 3.267,-17.062 11.98,-30.858c21.892,-14.23 35.103,-12.726 60.989,-9.439Z" style="fill:#fce890;fill-rule:nonzero;"/><path d="M1558.57,3846.94c16.7,9.076 16.7,9.076 29.043,23.234c3.702,23.035 3.601,35.042 -9.076,54.818c-19.631,12.584 -31.931,12.346 -54.818,9.076c-14.158,-9.076 -14.158,-9.076 -23.234,-23.234c-3.298,-23.088 -3.621,-35.228 9.439,-54.818c18.067,-11.886 27.368,-12.55 48.646,-9.076Z" style="fill:#fce891;fill-rule:nonzero;"/><path d="M850.858,1822.46c10.687,3.109 10.687,3.109 22.304,9.644c9.527,17.863 8.239,31.757 5.809,51.55c-9.076,14.159 -9.076,14.159 -23.235,23.234c-22.886,3.27 -35.187,3.509 -54.818,-9.075c-12.584,-19.631 -12.345,-31.932 -9.076,-54.818c15.58,-25.966 31.544,-25.804 59.016,-20.535Z" style="fill:#fcc960;fill-rule:nonzero;"/><path d="M2197.51,2876.92c14.158,9.076 14.158,9.076 23.234,23.234c3.299,23.088 3.621,35.228 -9.439,54.818c-18.191,11.968 -27.244,13.007 -48.646,9.076c-19.537,-14.44 -27.884,-22.736 -32.31,-46.831c3.267,-17.063 3.267,-17.063 12.343,-30.858c19.59,-13.06 31.73,-12.737 54.818,-9.439Z" style="fill:#fce891;fill-rule:nonzero;"/><path d="M896.396,2540.02c19.537,14.44 27.884,22.736 32.31,46.831c-3.267,17.063 -3.267,17.063 -12.343,30.858c-19.59,13.06 -31.73,12.737 -54.818,9.439c-14.158,-9.076 -14.158,-9.076 -23.234,-23.234c-3.299,-23.089 -3.621,-35.228 9.439,-54.818c18.191,-11.968 27.244,-13.007 48.646,-9.076Z" style="fill:#fcc960;fill-rule:nonzero;"/><path d="M1134.91,2185.34c19.519,7.06 28.354,12.411 40.297,29.406c3.52,21.122 2.739,30.687 -9.076,48.646c-19.59,13.06 -31.73,12.737 -54.818,9.439c-14.158,-9.439 -14.158,-9.439 -23.234,-23.234c-3.268,-17.063 -3.268,-17.063 -0,-34.851c14.59,-20.169 21.443,-28.888 46.831,-29.406Z" style="fill:#fcc960;fill-rule:nonzero;"/><path d="M1965.17,2267.02c11.617,5.808 11.617,5.808 17.425,17.425c3.02,20.704 3.666,39.138 -5.808,58.086c-18.953,9.476 -37.672,9.464 -58.086,5.808c-14.521,-9.439 -14.521,-9.439 -23.234,-23.234c-3.486,-20.919 -2.646,-30.661 8.713,-48.647c21.73,-14.124 35.283,-12.295 60.99,-9.438Z" style="fill:#fce892;fill-rule:nonzero;"/><path d="M1622.46,1651.32c11.617,5.808 11.617,5.808 17.426,17.425c3.019,20.705 3.665,39.138 -5.809,58.086c-18.925,9.462 -37.404,8.874 -58.085,5.808c-11.254,-6.171 -11.254,-6.171 -17.426,-17.425c-5.445,-19.967 -5.445,-19.967 -5.808,-40.66c17.189,-29.147 39.054,-26.64 69.702,-23.234Z" style="fill:#fce892;fill-rule:nonzero;"/><path d="M771.876,3580.11c19.966,5.445 19.966,5.445 31.221,11.617c10.181,18.567 9.179,37.098 6.171,57.722c-5.808,11.617 -5.808,11.617 -17.426,17.426c-20.704,3.019 -39.137,3.665 -58.085,-5.809c-9.486,-18.972 -9.419,-37.654 -5.808,-58.085c13.041,-21.388 18.768,-23.313 43.927,-22.871Z" style="fill:#fcca61;fill-rule:nonzero;"/><path id="path2989" d="M1177.88,3964.38c-70.273,-5.166 -134.601,-33.649 -180.047,-79.721c-26.569,-26.935 -60.652,-79.071 -54.96,-84.071c5.457,-4.795 140.033,-84.966 142.624,-84.966c1.581,-0 6.536,6.468 11.011,14.374c35.113,62.034 77.883,85.078 135.314,72.905c40.547,-8.594 59.692,-33.516 65.085,-84.722c1.628,-15.46 2.74,-148.671 2.768,-331.805l0.047,-305.974l177.972,-0l-0.085,323.771c-0.049,190.66 -1.166,332.106 -2.715,344.043c-19.48,150.073 -127.424,228.634 -297.014,216.166l0,0Zm691.166,0.194c-120.374,-8.371 -214.241,-59.809 -273.949,-150.121c-10.359,-15.668 -18.834,-29.285 -18.834,-30.26c-0,-1.716 134.231,-80.358 142.719,-83.615c2.951,-1.133 7.342,3.119 14.713,14.244c25.573,38.599 62.785,68.596 101.632,81.928c28.505,9.783 80.418,12.289 107.636,5.196c50.818,-13.243 77.749,-42.67 77.749,-84.955c0,-45.706 -25.91,-71.642 -107.719,-107.824c-20.304,-8.979 -55.197,-24.397 -77.54,-34.26c-114.523,-50.558 -170.25,-103.873 -195.053,-186.614c-9.702,-32.363 -12.452,-95.081 -5.619,-128.122c9.7,-46.907 28.422,-81.181 63.05,-115.427c38.254,-37.834 79.82,-58.43 138.544,-68.651c35.647,-6.204 109.086,-4.088 141.813,4.086c64.799,16.184 116.088,52.654 154.842,110.101l15.458,22.914l-7.016,5.476c-3.859,3.012 -35.231,23.571 -69.715,45.686l-62.699,40.21l-12.411,-18.668c-24.878,-37.421 -53.372,-54.651 -94.234,-56.981c-42.883,-2.445 -71.965,11.728 -87.034,42.415c-6.552,13.342 -7.717,19.01 -7.52,36.579c0.555,49.647 23.885,69.377 142.144,120.208c91.046,39.134 139.263,67.353 177.506,103.885c53.351,50.966 75.363,109.888 72.177,193.201c-1.76,46.028 -6.166,64.737 -23.952,101.721c-45.891,95.424 -162.336,147.687 -306.688,137.648l-0,0Z" style="fill:#31322f;fill-rule:nonzero;"/></svg>