<?xml version="1.0" encoding="UTF-8" standalone="no"?><!DOCTYPE svg PUBLIC "-//W3C//DTD SVG 1.1//EN" "http://www.w3.org/Graphics/SVG/1.1/DTD/svg11.dtd"><svg width="100%" height="100%" viewBox="0 0 430 313" version="1.1" xmlns="http://www.w3.org/2000/svg" xmlns:xlink="http://www.w3.org/1999/xlink" xml:space="preserve" xmlns:serif="http://www.serif.com/" style="fill-rule:evenodd;clip-rule:evenodd;stroke-miterlimit:10;"><rect id="Artboard1" x="0" y="0" width="429.65" height="312.391" style="fill:none;"/><g id="Artboard11" serif:id="Artboard1"><path d="M368.328,164.741c-0,53.925 -19.235,97.64 -42.963,97.64c-23.728,0 -42.965,-43.715 -42.965,-97.64c-0,-53.925 19.237,-97.641 42.965,-97.641c23.728,0 42.963,43.716 42.963,97.641" style="fill:#fff;fill-rule:nonzero;"/><path d="M368.328,164.741c-0,-53.89 -19.252,-97.641 -42.964,-97.641c-23.713,0 -42.964,43.751 -42.964,97.641c-0,53.889 19.251,97.64 42.964,97.64c23.712,0 42.964,-43.751 42.964,-97.64Z" style="fill:none;stroke:#1c1c1b;stroke-width:6.07px;"/><path d="M358.532,164.722c-0,7.553 -0.4,14.885 -1.107,21.86l0,0.046l-0.043,0.041c-4.107,39.528 -19.079,68.759 -36.919,68.759c-17.047,0 -31.441,-26.625 -36.3,-63.415c-1.147,-8.606 -1.766,-17.794 -1.766,-27.291c0,-50.075 17.047,-90.662 38.066,-90.662c21.022,-0 38.069,40.587 38.069,90.662" style="fill:#f5bb24;fill-rule:nonzero;"/><path d="M358.532,164.722c-0,7.553 -0.4,14.885 -1.107,21.86l0,0.046l-0.043,0.041c-4.107,39.528 -19.079,68.759 -36.919,68.759c-17.047,0 -31.441,-26.625 -36.3,-63.415c-1.147,-8.606 -1.766,-17.794 -1.766,-27.291c0,-50.075 17.047,-90.662 38.066,-90.662c21.022,-0 38.069,40.587 38.069,90.662Z" style="fill:none;fill-rule:nonzero;stroke:#1c1c1b;stroke-width:6.07px;"/><path d="M357.381,186.67c-4.103,39.525 -19.075,68.76 -36.915,68.76c-17.05,-0 -29.735,-26.785 -34.594,-63.572l-0.566,-13.125c0,-0 17.478,51.769 35.653,51.769c16.65,-0 35.41,-41.404 36.422,-43.832" style="fill:#1c1c1b;fill-rule:nonzero;"/><path d="M320.958,164.316c0,6.028 5.113,10.785 11.122,10.353l18.338,-1.312c2.725,-0.197 5.39,0.866 7.234,2.881l22.919,25.069l18.569,-8.478l-32.828,-38.45c-1.894,-2.219 -4.747,-3.372 -7.647,-3.094l-28.313,2.697c-5.325,0.509 -9.394,4.984 -9.394,10.334" style="fill:#fff;fill-rule:nonzero;"/><path d="M320.958,164.316c0,6.028 5.113,10.785 11.122,10.353l18.338,-1.312c2.725,-0.197 5.39,0.866 7.234,2.881l22.919,25.069l18.569,-8.478l-32.828,-38.45c-1.894,-2.219 -4.747,-3.372 -7.647,-3.094l-28.313,2.697c-5.325,0.509 -9.394,4.984 -9.394,10.334Z" style="fill:none;fill-rule:nonzero;stroke:#1c1c1b;stroke-width:6.07px;"/><path d="M338.115,153.156l0,-23.113l8.366,0l-0,22.913l-8.366,0.2Z" style="fill:#1c1c1b;fill-rule:nonzero;"/><path d="M346.48,130.045l-15.843,-23.459c-2.216,-4.219 -7.688,-5.444 -11.491,-2.572c-3.819,2.887 -4.116,8.519 -0.625,11.79l19.594,20.657l8.365,-6.416Z" style="fill:#fff;fill-rule:nonzero;"/><path d="M284.121,168.168c2.028,34.05 15.5,68.978 41.243,94.196c-73.44,15.766 -143.125,23.272 -203.625,10.644c-52.112,-10.822 -90.753,-56.528 -91.237,-109.787c-0,-2.207 0.044,-4.416 0.087,-6.622c0.135,-3.666 0.444,-7.244 0.928,-10.819c5.829,-43.5 37.36,-79.978 79.888,-93.181c73.484,-22.788 152.666,-22.613 213.959,14.484c-29.543,19.475 -43.85,59.616 -41.243,101.085" style="fill:#f5bb24;fill-rule:nonzero;"/><path d="M325.365,262.363c-73.441,15.766 -143.125,23.272 -203.625,10.644c-52.113,-10.822 -90.753,-56.528 -91.238,-109.788c0,-2.206 0.044,-4.415 0.088,-6.621c0.134,-3.666 0.441,-7.241 0.928,-10.819c75.734,61.915 176.113,59.925 252.603,22.387c2.028,34.05 15.5,68.982 41.244,94.197" style="fill:#f6ab16;fill-rule:nonzero;"/><path d="M325.365,67.1c-61.306,-37.132 -140.456,-37.291 -213.956,-14.516c-46.013,14.259 -79.125,55.856 -80.803,104.003c-0.079,2.216 -0.107,4.431 -0.091,6.641c0.453,53.247 39.1,98.947 91.231,109.797c60.478,12.593 130.166,5.084 203.619,-10.644c-57.081,-55.913 -53.769,-159.863 -0,-195.281Z" style="fill:none;fill-rule:nonzero;stroke:#1c1c1b;stroke-width:6.07px;"/><path d="M294.164,105.772c-0.044,0.134 -0.087,0.265 -0.131,0.396c-82.694,-17.64 -167.172,-13.371 -253.178,7.685c0.134,-0.219 0.225,-0.441 0.356,-0.663c91.281,-32.634 176.025,-36.962 252.953,-7.418" style="fill:#1c1c1b;fill-rule:nonzero;"/><path d="M284.139,168.171c-0.044,0.087 -0.044,0.134 0,0.178c-97.022,7.419 -185.919,7.506 -253.528,-11.572l-0,-0.175c-0,-0.178 -0,-0.309 0.044,-0.484c78.772,8.021 163.884,11.934 253.484,12.053" style="fill:#1c1c1b;fill-rule:nonzero;"/><path d="M296.197,219.309c-83.244,33.031 -166.091,39.128 -248.275,2.606c-0.222,-0.353 -0.441,-0.706 -0.619,-1.059c79.412,22.525 162.706,18.503 248.497,-2.519c0.131,0.356 0.262,0.663 0.397,0.972" style="fill:#1c1c1b;fill-rule:nonzero;"/><path d="M251.918,38.816c-52.658,73.532 -54.315,151.934 -4.971,239.018c0.169,0.296 0.175,0.658 0.017,0.961c-0.158,0.302 -0.458,0.504 -0.798,0.535c-5.28,0.488 -22.447,2.072 -26.669,2.461c-0.571,0.053 -1.117,-0.248 -1.376,-0.76c-46.293,-91.517 -38.638,-173.357 11.682,-247.543c4.625,-6.481 20.081,-1.313 22.115,5.328Z" style="fill:#fff;fill-rule:nonzero;stroke:#1c1c1b;stroke-width:6.07px;"/><path d="M229.433,61.17c0,2.703 -2.191,4.894 -4.894,4.894c-2.703,-0 -4.893,-2.191 -4.893,-4.894c-0,-2.7 2.19,-4.891 4.893,-4.891c2.703,0 4.894,2.191 4.894,4.891" style="fill:#1c1c1b;fill-rule:nonzero;"/><path d="M215.7,90.751c0,2.703 -2.19,4.893 -4.893,4.893c-2.704,0 -4.894,-2.19 -4.894,-4.893c-0,-2.7 2.19,-4.891 4.894,-4.891c2.703,0 4.893,2.191 4.893,4.891" style="fill:#1c1c1b;fill-rule:nonzero;"/><path d="M208.504,123.975c0,2.703 -2.191,4.894 -4.894,4.894c-2.703,-0 -4.893,-2.191 -4.893,-4.894c-0,-2.7 2.19,-4.891 4.893,-4.891c2.703,0 4.894,2.191 4.894,4.891" style="fill:#1c1c1b;fill-rule:nonzero;"/><path d="M204.381,160.148c0,2.703 -2.187,4.893 -4.89,4.893c-2.707,0 -4.894,-2.19 -4.894,-4.893c-0,-2.7 2.187,-4.891 4.894,-4.891c2.703,-0 4.89,2.191 4.89,4.891" style="fill:#1c1c1b;fill-rule:nonzero;"/><path d="M207.552,196.32c0,2.703 -2.19,4.894 -4.89,4.894c-2.707,-0 -4.897,-2.191 -4.897,-4.894c-0,-2.703 2.19,-4.894 4.897,-4.894c2.7,0 4.89,2.191 4.89,4.894" style="fill:#1c1c1b;fill-rule:nonzero;"/><path d="M213.662,231.409c-1.913,1.91 -5.013,1.91 -6.922,0c-1.91,-1.909 -1.91,-5.012 -0,-6.921c1.909,-1.91 5.009,-1.91 6.922,-0c1.909,1.909 1.909,5.012 -0,6.921" style="fill:#1c1c1b;fill-rule:nonzero;"/><path d="M224.974,263.779c-1.909,1.913 -5.012,1.913 -6.922,0c-1.909,-1.909 -1.909,-5.009 0,-6.918c1.91,-1.913 5.013,-1.913 6.922,-0c1.91,1.909 1.91,5.009 0,6.918" style="fill:#1c1c1b;fill-rule:nonzero;"/><path d="M139.214,44.352c-42.876,72.514 -39.865,147.045 -3.868,232.653c0.402,0.954 0.244,2.052 -0.411,2.853c-0.655,0.801 -1.699,1.175 -2.714,0.97c-6.961,-1.399 -18.977,-3.82 -23.763,-4.784c-1.268,-0.255 -2.294,-1.187 -2.669,-2.425c-27.23,-89.694 -28.504,-153.749 7.469,-228.439c4.425,-5.7 19.647,-8.144 25.956,-0.828Z" style="fill:#fff;fill-rule:nonzero;stroke:#1c1c1b;stroke-width:6.07px;"/><path d="M117.876,69.163c0,2.7 -2.19,4.89 -4.89,4.89c-2.707,0 -4.897,-2.19 -4.897,-4.89c-0,-2.704 2.19,-4.894 4.897,-4.894c2.7,-0 4.89,2.19 4.89,4.894" style="fill:#1c1c1b;fill-rule:nonzero;"/><path d="M109.057,99.082c-0,2.703 -2.191,4.894 -4.894,4.894c-2.703,-0 -4.894,-2.191 -4.894,-4.894c0,-2.7 2.191,-4.891 4.894,-4.891c2.703,0 4.894,2.191 4.894,4.891" style="fill:#1c1c1b;fill-rule:nonzero;"/><path d="M103.197,130.24c0,2.7 -2.19,4.891 -4.894,4.891c-2.703,-0 -4.893,-2.191 -4.893,-4.891c-0,-2.703 2.19,-4.893 4.893,-4.893c2.704,-0 4.894,2.19 4.894,4.893" style="fill:#1c1c1b;fill-rule:nonzero;"/><path d="M101.662,163.099c0,2.7 -2.19,4.89 -4.89,4.89c-2.707,0 -4.897,-2.19 -4.897,-4.89c-0,-2.703 2.19,-4.894 4.897,-4.894c2.7,0 4.89,2.191 4.89,4.894" style="fill:#1c1c1b;fill-rule:nonzero;"/><path d="M103.197,192.463c0,2.7 -2.19,4.89 -4.894,4.89c-2.703,0 -4.893,-2.19 -4.893,-4.89c-0,-2.703 2.19,-4.894 4.893,-4.894c2.704,0 4.894,2.191 4.894,4.894" style="fill:#1c1c1b;fill-rule:nonzero;"/><path d="M107.622,227.405c-1.909,1.91 -5.009,1.91 -6.919,0c-1.912,-1.912 -1.912,-5.012 0,-6.922c1.91,-1.909 5.01,-1.909 6.919,0c1.91,1.91 1.91,5.01 0,6.922" style="fill:#1c1c1b;fill-rule:nonzero;"/><path d="M117.409,258.887c-1.909,1.91 -5.009,1.91 -6.919,0c-1.912,-1.909 -1.912,-5.012 0,-6.922c1.91,-1.909 5.01,-1.909 6.919,0c1.909,1.91 1.909,5.013 0,6.922" style="fill:#1c1c1b;fill-rule:nonzero;"/><path d="M291.933,51.029l15.247,19.363c-19.509,24.925 -24.716,55.228 -23.388,87.812c2.797,-40.5 14.985,-72.4 41.572,-91.103l-33.431,-16.072Z" style="fill:#1c1c1b;fill-rule:nonzero;"/><path d="M303.74,233.97c5.919,16.753 3.703,19.518 3.644,24.94c-9.556,5.61 -26.756,9.469 -48.022,15.232l66.003,-11.76c-11.728,-11.078 -14.353,-13.719 -21.625,-28.412" style="fill:#1c1c1b;fill-rule:nonzero;"/><path d="M118.542,229.529c11.081,20.338 22.165,40.713 31.678,47.916l-15.841,-0.85l-15.837,-47.066Z" style="fill:#1c1c1b;fill-rule:nonzero;"/><path d="M221.514,220.728c13.453,23.26 27.622,43.156 44.237,51.606l-19.922,3.51l-24.315,-55.116Z" style="fill:#1c1c1b;fill-rule:nonzero;"/><path d="M146.636,43.552c-14.494,24.631 -26.659,54.128 -37.363,86.688c4.363,-30.928 13.841,-59.763 29.941,-85.888l7.422,-0.8Z" style="fill:#1c1c1b;fill-rule:nonzero;"/><path d="M383.763,199.848l-18.943,-25.106l22.175,23.628l-3.232,1.478Z" style="fill:#1c1c1b;fill-rule:nonzero;"/><path d="M388.448,197.709l-17.878,-22.256l19.981,21.293l-2.103,0.963Z" style="fill:#1c1c1b;fill-rule:nonzero;"/><path d="M391.875,196.143l-13.206,-18.159l15.762,16.994l-2.556,1.165Z" style="fill:#1c1c1b;fill-rule:nonzero;"/><path d="M275.701,150.165c-19.3,1.091 -38.028,0.15 -56.053,-3.278l56.053,3.278Z" style="fill:#1c1c1b;fill-rule:nonzero;"/><path d="M221.514,130.24c17.25,-0.578 35.378,1.719 54.187,6.219l-54.187,-6.219Z" style="fill:#1c1c1b;fill-rule:nonzero;"/><path d="M111.971,113.373c23.503,-1.821 48.372,0.222 74.303,5.235l-74.303,-5.235Z" style="fill:#1c1c1b;fill-rule:nonzero;"/><path d="M109.487,149.399c23.5,-1.825 48.372,0.219 74.3,5.232l-74.3,-5.232Z" style="fill:#1c1c1b;fill-rule:nonzero;"/><path d="M121.761,128.742c17.266,-1.55 35.594,0.784 54.725,6.091l-54.725,-6.091Z" style="fill:#1c1c1b;fill-rule:nonzero;"/><path d="M277.651,87.696c-18.053,-6.95 -35.878,-13.669 -46.875,-13.641l1.897,-3.809c11.022,-0.153 27.915,8.522 44.978,17.45" style="fill:#1c1c1b;fill-rule:nonzero;"/><path d="M277.651,77.033c-14.981,-8.281 -29.556,-15.912 -39.747,-16.453l2.528,-4.303c10.55,2.234 23.725,11.094 37.219,20.756" style="fill:#1c1c1b;fill-rule:nonzero;"/><path d="M244.283,50.074l1.522,-2.347c9.262,-0.509 23.156,6.056 38.334,14.575c-15.443,-6.897 -29.943,-12.553 -39.856,-12.228" style="fill:#1c1c1b;fill-rule:nonzero;"/><path d="M263.592,197.385c-19.219,2.169 -38.166,4.178 -48.797,1.375l0.875,4.166c10.622,2.928 29.159,-1.203 47.922,-5.541" style="fill:#1c1c1b;fill-rule:nonzero;"/><path d="M260.903,207.7c-16.585,4.238 -32.616,7.947 -42.61,5.9l1.36,4.8c10.769,0.5 25.753,-4.753 41.25,-10.7" style="fill:#1c1c1b;fill-rule:nonzero;"/><path d="M221.907,222.977l1.163,2.541c9.091,1.853 23.794,-2.613 40.05,-8.831c-16.284,4.571 -31.453,8.053 -41.213,6.29" style="fill:#1c1c1b;fill-rule:nonzero;"/><path d="M138.5,56.278l43.569,-1.275l-41.432,-3.012l-2.137,4.287Z" style="fill:#1c1c1b;fill-rule:nonzero;"/><path d="M145.449,45.591l67.09,-3.285l-69.2,5.394l2.11,-2.109Z" style="fill:#1c1c1b;fill-rule:nonzero;"/><path d="M218.663,48.716l-37.875,-1.016l37.875,4.291l0,-3.275Z" style="fill:#1c1c1b;fill-rule:nonzero;"/><path d="M129.671,73.063l46.813,1.994l-48.532,3.915l1.719,-5.909Z" style="fill:#1c1c1b;fill-rule:nonzero;"/><path d="M32.995,145.789l23.406,1.994l-24.263,3.912l0.857,-5.906Z" style="fill:#1c1c1b;fill-rule:nonzero;"/><path d="M35.207,131.879l39.703,1.997l-41.162,3.912l1.459,-5.909Z" style="fill:#1c1c1b;fill-rule:nonzero;"/><path d="M37.828,119.083l18.572,1.994l-19.256,3.912l0.684,-5.906Z" style="fill:#1c1c1b;fill-rule:nonzero;"/><path d="M208.504,69.163l-38.966,-4.216l41.266,0.962l-2.3,3.254Z" style="fill:#1c1c1b;fill-rule:nonzero;"/><path d="M197.1,99.906l-46.882,0.928l45.647,3.144l1.235,-4.072Z" style="fill:#1c1c1b;fill-rule:nonzero;"/><path d="M109.273,180.86l51.325,1.703l-51.112,1.891l-0.213,-3.594Z" style="fill:#1c1c1b;fill-rule:nonzero;"/><path d="M30.739,173.276l41.85,1.388l-41.675,1.544l-0.175,-2.932Z" style="fill:#1c1c1b;fill-rule:nonzero;"/><path d="M189.571,193.937l-53.381,2.384l54.293,3.522l-0.912,-5.906Z" style="fill:#1c1c1b;fill-rule:nonzero;"/><path d="M177.938,206.4c-19.156,1.981 -37.472,1.853 -54.728,-0.947l54.728,0.947Z" style="fill:#1c1c1b;fill-rule:nonzero;"/><path d="M74.91,193.738c-12.684,1.982 -24.806,1.854 -36.231,-0.946l36.231,0.946Z" style="fill:#1c1c1b;fill-rule:nonzero;"/><path d="M113.948,211.249l51.188,2.719l-51.188,0l0,-2.719Z" style="fill:#1c1c1b;fill-rule:nonzero;"/><path d="M40.246,207.743l42.059,2.719l-42.059,-0l-0,-2.719Z" style="fill:#1c1c1b;fill-rule:nonzero;"/><path d="M194.597,220.02l-55.384,4.919l56.49,-1.344l-1.106,-3.575Z" style="fill:#1c1c1b;fill-rule:nonzero;"/><path d="M127.953,251.615l55.897,-1.134l-55.038,4.947l-0.859,-3.813Z" style="fill:#1c1c1b;fill-rule:nonzero;"/><path d="M132.784,260.322l45.153,-0.76l-43.003,5.11l-2.15,-4.35Z" style="fill:#1c1c1b;fill-rule:nonzero;"/><path d="M306.261,239.731c-9.156,10.213 -30.272,14.35 -51.647,18.353c21.678,-0.365 43.325,-0.75 54.297,-7.606l-2.65,-10.747Z" style="fill:#1c1c1b;fill-rule:nonzero;"/><path d="M300.857,229.16c-9.607,8.006 -25.938,11.675 -43.216,14.734c18.062,-0.337 34.703,-1.684 46.837,-6.243l-3.621,-8.491Z" style="fill:#1c1c1b;fill-rule:nonzero;"/></g></svg>